<?xml version="1.0" encoding="utf-8"?>
<!-- Generator: Adobe Illustrator 21.0.1, SVG Export Plug-In . SVG Version: 6.00 Build 0)  -->
<svg version="1.1" id="Layer_1" xmlns="http://www.w3.org/2000/svg" xmlns:xlink="http://www.w3.org/1999/xlink" x="0px" y="0px"
	 viewBox="0 0 283.5 283.5" style="enable-background:new 0 0 283.5 283.5;" xml:space="preserve">
<style type="text/css">
	.st0{fill:#F2B749;}
</style>
<path class="st0" d="M253.4,56.1c0.4-0.5,0.8-1.1,1.1-1.7l0.4-0.6l-0.1,0c0.9-1.8,1.4-3.8,1.4-6c0-7.5-6.1-13.6-13.6-13.6
	c-4.4,0-8.3,2.1-10.8,5.3l0,0l-119.1,151L55.3,141c-0.8-0.8-1.6-1.5-2.5-2.1l-0.1-0.1l0,0c-2.6-1.8-5.8-2.9-9.2-2.9
	c-9,0-16.3,7.3-16.3,16.3c0,4.1,1.5,7.8,4,10.7l0,0l72.3,79.8c3,4,7.7,6.5,13,6.5c5.3,0,10-2.6,13-6.5h0l0.1-0.1
	c0.3-0.4,0.6-0.9,0.9-1.3L253.4,56.1z"/>
</svg>
